<svg id="Group_519" data-name="Group 519" xmlns="http://www.w3.org/2000/svg" width="109.874" height="107.658" viewBox="0 0 109.874 107.658">
  <path id="Path_152" data-name="Path 152" d="M175.059,103.825v5.6c-.051.205-.154.411-.205.616a29.483,29.483,0,0,1-4.058,12.173c-.205.308-.514.77-.77.77-2.671.051-5.342.051-8.167.051V106.5H132.992v16.59H116.4V152h16.642v1.284c0,4.777.051,9.5-.051,14.279a3.349,3.349,0,0,1-.719,1.9c-2.363,2.928-4.777,5.8-7.14,8.68-1.644,1.952-3.287,3.955-4.982,6.01-.411-.462-.719-.822-1.027-1.233q-23.345-28.2-46.587-56.449c-6.164-7.448-8.68-16.025-6.677-25.476,2.62-12.379,10.324-20.289,22.549-23.627a43.9,43.9,0,0,1,4.52-.873h5.136c1.027.154,2.106.308,3.133.514a30.078,30.078,0,0,1,18.234,11.249c.205.257.462.514.719.822.36-.462.668-.77.925-1.13a29.68,29.68,0,0,1,15.358-10.273c1.849-.565,3.8-.77,5.753-1.181h4.931c.36.051.77.154,1.13.205a28.382,28.382,0,0,1,8.629,2.363c9.04,4.212,14.9,11.095,17.31,20.8C174.545,101.052,174.751,102.439,175.059,103.825Z" transform="translate(-65.185 -76.5)" fill="#fff"/>
  <path id="Path_153" data-name="Path 153" d="M178.8,179.778V165.242h16.59V148.6h14.484v16.59h16.642v14.536h-16.59v16.59H195.39V179.778Z" transform="translate(-120.443 -111.567)" fill="#fff"/>
</svg>
