<svg xmlns="http://www.w3.org/2000/svg" width="140.485" height="116.179" viewBox="0 0 140.485 116.179">
  <g id="Group_529" data-name="Group 529" transform="translate(-816.6 -704.841)">
    <path id="Path_196" data-name="Path 196" d="M816.6,891.662c.952-1.322,1.957-2.644,3.755-2.962a5.2,5.2,0,0,1,5.13,1.587c8.092,8.409,20.2,6.875,26.021-3.173a2.366,2.366,0,0,1,1.745-1.216A2.8,2.8,0,0,1,855,887.273c5.13,9.044,16.712,11.212,24.381,4.443,1.428-1.269,2.433-3.067,3.649-4.548.476-.529,1.111-1.269,1.692-1.269a2.627,2.627,0,0,1,1.745,1.216c3.12,5.447,7.774,8.515,14.015,8.568,6.346.053,11.054-3.015,14.174-8.515a1.81,1.81,0,0,1,3.438.053c5.553,9.837,17.929,11.477,25.809,3.385,2.327-2.38,5.5-2.644,7.669-.582,2.274,2.115,2.221,5.289-.106,7.827a26.246,26.246,0,0,1-34.112,3.808,1.357,1.357,0,0,0-1.8-.159c-10.049,6.452-20.1,6.4-30.093,0-.212-.159-.476-.264-.74-.476a26.354,26.354,0,0,1-10.948,4.76,25.627,25.627,0,0,1-19.462-4.072,1.632,1.632,0,0,0-2.221,0,26.194,26.194,0,0,1-33.213-3.12,28.54,28.54,0,0,1-2.274-2.75C816.6,894.359,816.6,893.037,816.6,891.662Z" transform="translate(0 -85.299)" fill="#fff"/>
    <path id="Path_197" data-name="Path 197" d="M954.05,780.607c-3.543-4.5-6.928-8.885-10.525-13.433q-3.967,14.121-7.722,27.607a35.6,35.6,0,0,0-4.654-3.491c-6.082-3.226-13.116-.9-16.554,5.289a5.445,5.445,0,0,1-5.024,3.226,4.9,4.9,0,0,1-4.072-2.168,27.855,27.855,0,0,1-1.957-3.12,2.2,2.2,0,0,1,.053-1.534c2.591-9.255,5.183-18.458,7.774-27.713.106-.37.159-.688.317-1.269-8.409-2.38-16.818-4.707-25.386-7.14-3.861,13.8-7.722,27.5-11.635,41.569a11.675,11.675,0,0,1-1.216-1.639c-2.38-4.443-6.135-6.928-11.159-6.875-4.971,0-8.621,2.486-11,6.875a5.251,5.251,0,0,1-8.356,1.534,1.733,1.733,0,0,1-.582-2.01c3.332-11.688,6.611-23.376,9.943-35.064,1.534-5.5,3.12-11,4.654-16.5.106-.476.212-.952.423-1.692-5.395,2.01-10.577,3.967-15.919,5.976-1.851-4.919-3.7-9.784-5.553-14.7,3.914-1.481,7.722-2.909,11.477-4.337q33.081-12.455,66.109-24.963a1.424,1.424,0,0,1,2.01.582q25.069,32.129,50.19,64.152c.688.9.688,1.375-.212,2.063C961.56,774.683,957.911,777.592,954.05,780.607Z" transform="translate(-9.093 0)" fill="#fff"/>
  </g>
</svg>
