<svg xmlns="http://www.w3.org/2000/svg" width="83.655" height="136.972" viewBox="0 0 83.655 136.972">
  <g id="Group_530" data-name="Group 530" transform="translate(-861.397 -371.998)">
    <path id="Path_198" data-name="Path 198" d="M903.035,470.834H890.773c-3.638,0-6.2-2.089-6.6-5.592-1.078-8.893-5.322-16.169-11.251-22.569a41.816,41.816,0,1,1,66.159-50.327c9.365,15.7,7.613,35.842-4.514,49.181-6.4,7.074-11.251,14.687-12.464,24.389-.337,2.964-2.56,4.986-5.929,4.986C911.726,470.834,907.414,470.834,903.035,470.834Zm-3.5-49.518c-1.347,5.659-2.628,10.308-3.5,15.024-.27,1.28.472,2.695.741,4.042,1.145-.674,2.56-1.011,3.3-1.954,7.074-9.3,14.081-18.595,20.953-28.027,2.223-3.032,1.549-4.11-2.223-4.177-3.84-.067-7.613,0-11.318,0-.674-6.872,3.705-12.8,2.223-20.279-1.819,1.415-2.83,1.886-3.5,2.762-7.007,9.432-14.081,18.931-20.953,28.5-2.021,2.83-1.347,4.042,2.089,4.177C891.177,421.45,895.018,421.315,899.531,421.315Z"/>
    <path id="Path_199" data-name="Path 199" d="M900.674,524.7h30.25c0,7.344.067,14.485-.067,21.626,0,.876-.943,1.954-1.752,2.695-2.56,2.493-5.255,4.918-7.883,7.344-3.773,3.5-6.8,2.964-11.049,0-7.883-5.524-11.184-12.531-9.567-22.1C901.145,531.235,900.674,528.069,900.674,524.7Z" transform="translate(-12.663 -49.824)" />
  </g>
</svg>
