<svg xmlns="http://www.w3.org/2000/svg" width="84.329" height="141.718" viewBox="0 0 84.329 141.718">
  <g id="Group_517" data-name="Group 517" transform="translate(-463.704 -393.765)">
    <path id="Path_134" data-name="Path 134" d="M9715.5,4943.247c13.9-39.393-14.535-59.827-9.27-55.614s-2.738,46.345-2.316,24.226-30.125-86.16-28.439-63.2-9.269,39.814-26.122,60.459-12.007,40.236-6.53,53.929,20.435,22.751,46.768,22.33,32.441-46.556,32.441-46.556-4.846,5.9-6.531,5.9S9715.5,4943.247,9715.5,4943.247Z" transform="translate(-9174 -4450)" fill="#fff"/>
    <path id="Path_136" data-name="Path 136" d="M10193.956,5034.351s.413,12.921,0,22.962c-.371,9.009-1.8,15.369,1.9,13.271,5.269-2.99-.809,11.736-11.354,20.462-5.02,4.153-11.909,6.273-17.506,5.659-5.459-.6-12.837-1.193-19.111-4.437-13.428-6.942-24.473-21.691-19.861-43.594,6.741-32.02,41.922-43.817,33.705-61.091s18.117,13.693,20.855,50.558c.762,10.249,4.274,9.7,5.688,10.533C10191.749,5050.737,10193.956,5034.351,10193.956,5034.351Z" transform="translate(-9658.353 -4561.328)" fill="#2d804c"/>
    <path id="Path_138" data-name="Path 138" d="M10203.362,5152.38c5.935-11.077,8.776,8.735,2.634,23.777-3.64,8.912-11.322,15.771-21.172,14.352-3.1-.446-4.947-.122-7.808-.953-6.452-1.874-13.1-5.793-16.673-10.343-7.869-10.028-8.182-25.271-4.59-34,5.9-14.325,29.914-30.967,30.545-43.186.361-6.977,9.69,34.337,9.69,34.337S10199.3,5159.971,10203.362,5152.38Z" transform="translate(-9677.449 -4655.341)" fill="#fff"/>
    <path id="Path_139" data-name="Path 139" d="M10204.568,5228.647c.9,1.279,5.144,8.533,9.69,16.853,2.9,5.313,6.748,10.154,7.162,17.274,1.054,18.117-1.264,28.018-13.481,28.65-7.319.378-7.163-1.686-17.274-8.427-3.774-5.009-11.635-14.219-8.848-22.751,6.952-21.276,8.637-25.49,8.848-18.327s4,23.8,5.9,20.855S10203.094,5226.541,10204.568,5228.647Z" transform="translate(-9699.3 -4756.045)" fill="#2d804c"/>
  </g>
</svg>
