<svg xmlns="http://www.w3.org/2000/svg" width="166.264" height="145.306" viewBox="0 0 166.264 145.306">
  <path id="Path_154" data-name="Path 154" d="M98.269,388.563c-7.28-7.492-4.806-16.256.283-20.356,5.8-4.665,14.913-4.029,20,4.1,1.131-2.4,2.12-4.594,3.181-6.785.424-.919.777-1.838,1.272-2.686,1.131-1.838,3.11-2.332,5.372-1.343,6.29,2.827,12.652,5.513,18.8,8.623,2.756,1.414,4.877,1.343,7.7-.141,28.413-14.843,62.269,1.2,69.2,32.513,5.866,26.575-12.652,53.292-39.651,57.321a47.622,47.622,0,0,1-20.709-1.343c-.636-.212-1.626-.919-1.626-1.484a62.481,62.481,0,0,0-4.877-21.7,30.922,30.922,0,0,0,24.384,6.856,29.337,29.337,0,0,0,18.447-10.178A30.128,30.128,0,0,0,164.5,385.029c-11.238,5.16-21.062,18.518-16.186,36.471-2.615-2.332-5.16-4.523-7.563-6.785a3.055,3.055,0,0,1-.424-1.979V393.369c-.071-6.149-3.11-10.531-8.694-11.521-3.675-.636-7.492-.283-11.238-.353-.283,0-.636.495-.848.848-1.131,2.05-2.262,4.1-3.463,6.29h12.652c2.969.071,4.382,1.414,4.453,4.523.071,4.523,0,9.118,0,13.641,0,3.251.071,6.432,0,9.683a2.811,2.811,0,0,0,1.343,2.615c15.055,11.167,21.911,26.151,20.144,44.74a47.806,47.806,0,0,1-39.792,41.842c-25.8,4.029-49.264-11.945-54.918-37.46-4.029-18.165,3.675-37.955,19.083-48.839a3.585,3.585,0,0,0,1.767-3.322c-.071-7.563-.071-15.2-.071-22.759,0-3.322,1.414-4.736,4.665-4.736ZM106.75,488.5a30.181,30.181,0,0,0,.283-60.36c-16.186-.212-30.18,13.358-30.392,29.4A30.148,30.148,0,0,0,106.75,488.5ZM111.274,382.7c2.474-2.969,2.332-6.573-.353-8.906a6.264,6.264,0,0,0-8.835.565,5.8,5.8,0,0,0,.283,8.2A4.934,4.934,0,0,1,111.274,382.7ZM108.8,405.738c2.615-2.615,2.969-5.018,1.2-6.927a4.19,4.19,0,0,0-6.008-.283c-2.12,1.908-1.908,4.17.777,7.351-.424.848-.848,1.767-1.272,2.615-.636,1.343-.141,1.838,1.2,1.838h4.17c1.555,0,1.838-.777,1.2-2.05Z" transform="translate(-58.902 -360.992)"/>
</svg>
