<svg xmlns="http://www.w3.org/2000/svg" width="127.239" height="118.825" viewBox="0 0 127.239 118.825">
  <g id="Group_521" data-name="Group 521" transform="translate(-72.4 -632)">
    <g id="Group_520" data-name="Group 520" transform="translate(91.821 632)">
      <path id="Path_155" data-name="Path 155" d="M191.009,739.778H106.2c.057-1.379.057-2.7.23-3.965a41.823,41.823,0,0,1,12.526-26.144,42.619,42.619,0,0,1,10.515-7.585.9.9,0,0,1,1.207.172,25.962,25.962,0,0,0,20.225,6.838,25.37,25.37,0,0,0,15.284-6.665,1.262,1.262,0,0,1,1.724-.23c12.181,6.665,19.766,16.721,22.294,30.453C190.607,734.894,190.722,737.307,191.009,739.778Z" transform="translate(-106.2 -661.749)"/>
      <path id="Path_156" data-name="Path 156" d="M185.242,652.8A20.772,20.772,0,1,1,164.615,632,20.819,20.819,0,0,1,185.242,652.8Z" transform="translate(-122.153 -632)" />
    </g>
    <path id="Path_157" data-name="Path 157" d="M89.925,780.7l4.654,12.066,12.871.69-10,8.1,3.333,12.526-10.86-7.068-10.8,7.068L82.4,801.557l-10-8.1,12.871-.69Z" transform="translate(0 -63.259)"/>
    <path id="Path_158" data-name="Path 158" d="M163.325,780.7l4.654,12.066,12.928.69-10.055,8.1,3.333,12.526-10.86-7.068-10.8,7.068,3.333-12.526-10.055-8.1,12.928-.69Z" transform="translate(-31.225 -63.259)"/>
    <path id="Path_159" data-name="Path 159" d="M240.716,780.7l5.688,14.745,15.729.843-12.218,9.9,4,15.307-13.2-8.637L227.445,821.5l4.073-15.307-12.218-9.9,15.728-.843Z" transform="translate(-62.493 -70.671)"/>
  </g>
</svg>
