<svg xmlns="http://www.w3.org/2000/svg" width="166.594" height="159.825" viewBox="0 0 166.594 159.825">
  <g id="Group_541" data-name="Group 541" transform="translate(-63.1 -900)">
    <path id="Path_235" data-name="Path 235" d="M116.256,1000.255a32.089,32.089,0,0,1,2.779-2.351c.143,2.28.285,3.777.285,5.273.071,3.349,0,6.7.071,10.047,0,1.354,0,2.85,2.138,3.278,2.708-2.494,1.14-5.914,1.568-8.836.428-2.993-.784-6.271,1-9.548,1.069,1.211,1.924,2.066,2.708,2.993a48.187,48.187,0,0,0,6.27,5.772c2.85-2.779,5.772-5.629,8.622-8.479-.214-.427-.428-.926-.641-1.354.356-.285.428-.5.57-.5a14.9,14.9,0,0,1,1.781.071h.071c5.772-5.7,11.472-11.4,17.03-17.03a67.691,67.691,0,0,0-13.752-1.354c3.563-3.064,7.411-5.487,10.759-8.408a72.68,72.68,0,0,0,9.406-9.9,64.929,64.929,0,0,0,4.632-6.912,12.365,12.365,0,0,1,1.069-1.853c.57-.926,1.069-1.924,1.568-2.921,2.066-3.919,4.56-7.838,5.059-12.4-2.636-1.639-4.774-.784-6.983-.214-13.823,3.848-25.01,11.686-34.487,22.3-1.211,1.354-2.423,2.565-3.634,3.848a4.357,4.357,0,0,0-.855-.356c2.066-10.546,2.708-21.02.641-31.637-2.28-11.615-8.123-25.652-13.182-29.785-3.99,4.133-5.772,9.263-7.7,14.108a82.077,82.077,0,0,0-4.489,15.32,83.855,83.855,0,0,0-1.568,16.317c.071,5.2,1.14,10.4,1.853,16.531-1.5-1.425-2.423-2.209-3.206-3.064-2.138-2.209-4.2-4.418-6.342-6.555a67.422,67.422,0,0,0-30.212-17.315c-2-.57-4.133-1.283-5.985.784.713,4.7,3.206,8.551,5.273,12.541a75.815,75.815,0,0,0,7.054,11.187,73.213,73.213,0,0,0,9.477,9.9c3.349,2.921,7.2,5.344,11.615,8.622-2.494.143-3.99.285-5.487.285-8.622-.143-16.531,2.423-24.227,5.914-1.568.713-3.491,1.283-3.634,4.2,5.273,3.99,11.757,5.558,18.17,7.2,6.555,1.71,13.182.855,20.308.5-2.351,4.845-5.344,9.121-3.42,15.106a28.554,28.554,0,0,0,4.7-1.069C108.276,1008.236,112.48,1004.531,116.256,1000.255Z" fill="#fff"/>
    <path id="Path_236" data-name="Path 236" d="M160.006,1052.888c-8.194,7.909-15.819,15.961-24.369,24.155-1.14-1.069-1.781-1.639-2.636-2.494,3.99-5.2,8.266-8.835,12.185-12.826,3.777-3.919,7.7-7.767,11.686-11.757-.428-1.354-.855-2.423-1.211-3.563a40.992,40.992,0,0,1-1.639-4.7c-1.069-4.347-.5-7.98,3.135-11.543,13.895-13.467,27.5-27.291,41.185-41.043,1.283-1.283,2.423-2.636,3.777-4.062a18.892,18.892,0,0,0-2.138-2.708c-3.349-2.921-3.135-8.337-.641-10.688,3.064-2.921,6.912-2.565,10.9,1.211,2.209,2.066,4.347,4.275,6.413,6.27,3.349-1.71,10.4-8.622,12.826-12.47-.285-2.138-4.347-3.563-1.354-6.769a8.545,8.545,0,0,1,2.28,1.14c5.344,4.347,17.956,17.742,19.381,20.45-2.28,1.924-2.28,1.924-6.27-.926-2.921,1.354-9.691,7.767-12.968,12.47,1.5,1.5,2.993,3.135,4.56,4.774a42.124,42.124,0,0,1,3.42,3.705c2.209,2.921,2.138,6.27-.071,8.764a7.114,7.114,0,0,1-9.192,1.069c-1.354-.926-2.565-2.066-4.275-3.492a46.64,46.64,0,0,0-3.99,3.492c-13.752,13.681-27.576,27.219-41.043,41.185-3.919,4.062-7.909,4.632-12.755,3.135C164.993,1054.812,162.713,1053.885,160.006,1052.888Zm57.431-44.392c1.069-1,2.494-2.423,4.418-4.275L205.537,987.9c-5.273,5.059-9.976,9.833-15.6,15.534C199.552,1005,207.461,1008.567,217.437,1008.5Zm-10.759,10.759c-2-1.924-3.634-3.705-5.415-5.273a2.606,2.606,0,0,0-3.705-.142,2.542,2.542,0,0,0-.071,3.705c1.568,2,3.135,4.062,5.985,5.2C204.4,1021.678,205.395,1020.609,206.678,1019.255Zm-24.227,24.725c-2.066-2.138-3.563-3.848-5.273-5.344-1.211-1.069-2.708-1.71-4.062-.356-1.354,1.283-.855,2.85.214,4.062,1.568,1.71,3.349,3.349,5.629,5.487C180.171,1046.475,181.1,1045.477,182.451,1043.981Zm12.042-12.612c-1.283-1.211-2.138-2.351-3.349-2.921-.926-.427-2.636-.427-3.206.214a3.587,3.587,0,0,0-.428,3.206c.57,1.283,1.853,2.209,2.85,3.349a11.814,11.814,0,0,0,1.853-1.211C192.925,1033.292,193.5,1032.58,194.493,1031.369Z" transform="translate(-20.093 -17.218)" fill="#fff"/>
  </g>
</svg>
