<svg xmlns="http://www.w3.org/2000/svg" width="163.302" height="155.71" viewBox="0 0 163.302 155.71">
  <g id="Group_545" data-name="Group 545" transform="translate(-606.4 -1225.844)">
    <path id="Path_176" data-name="Path 176" d="M632.937,193.9c2.119,3.956,1.06,7.346-1.766,10.313a84.754,84.754,0,0,1-6.923,6.428c-4.733,3.885-9.536,7.558-14.41,11.3a18.1,18.1,0,0,1-8.053,3.814c-4.38.706-8.688,1.342-13.068,2.119-7.276,1.271-14.622,2.472-21.9,3.814a22.034,22.034,0,0,1-15.258-2.4c-8.053-4.45-16.176-8.83-24.229-13.28-4.874-2.684-9.819-5.439-14.622-8.194a29.988,29.988,0,0,0-12.432-4.026c-2.614-.283-3.108-1.13-2.9-3.744.565-6,.989-12.079,1.483-18.083.353-4.662.777-9.324,1.2-14.057.141-1.7.353-3.391.424-5.086a3.033,3.033,0,0,1,2.26-2.967,75.888,75.888,0,0,1,23.311-5.51,46.7,46.7,0,0,1,22.18,3.6c3.744,1.625,7.276,3.814,10.949,5.792,2.331,1.271,4.521,2.826,7.276,3.179,3.179.424,6.428.706,9.607,1.06a87.543,87.543,0,0,1,21.333,4.45,23.96,23.96,0,0,1,4.662,2.331,8.251,8.251,0,0,1,3.885,7.841,14.751,14.751,0,0,1-3.037,8.477A7.682,7.682,0,0,1,595,194.111c-8.759-1.483-17.589-3.108-26.419-4.45a30.486,30.486,0,0,0-8.406.212,64.858,64.858,0,0,1-10.454.565,1.43,1.43,0,0,0-.989.283,76.1,76.1,0,0,0,7.558,2.19,27.922,27.922,0,0,1,7.417,2.9c3.32,1.7,6.64,3.461,10.313,4.168a39.02,39.02,0,0,0,12.5.636c4.238-.494,8.547-.989,12.785-1.766a24.138,24.138,0,0,0,13.7-7.841,24.011,24.011,0,0,1,11.443-7.276c3.108-.848,6.075-.494,8.547,1.837,2.4,2.26,2.614,4.874.565,7.558A2.06,2.06,0,0,0,632.937,193.9Z" transform="translate(134.731 1149.419)"/>
    <path id="Path_177" data-name="Path 177" d="M590.817,95.377h47.8c2.758,0,3.141.46,3.141,3.217v14.325c0,2.834-.46,3.37-3.294,3.37H543.937c-3.983,0-4.137-.23-4.137-4.137V98.517c0-2.758.46-3.217,3.217-3.217h41.212c2.221.077,4.366.077,6.588.077Z" transform="translate(122.263 1162.008)" />
    <path id="Path_178" data-name="Path 178" d="M461,200.434a275.715,275.715,0,0,1,2.543-35.814c.636-4.238,1.413-8.477,2.19-12.644.494-2.755,1.13-3.249,3.814-3.179,4.38.141,8.83.424,13.209.636,1.837.071,2.684.989,2.472,2.9-.424,3.814-1.06,7.629-1.554,11.443-.777,6.428-1.625,12.856-2.19,19.355q-.848,9.112-1.271,18.225a54.375,54.375,0,0,0,.212,6.781c.141,2.472-.848,3.6-3.32,3.461-4.38-.212-8.689-.424-13.068-.636-2.119-.071-2.967-.989-2.967-3.108C461,205.379,461,202.906,461,200.434Z" transform="translate(145.4 1151.008)"/>
    <path id="Path_179" data-name="Path 179" d="M610.677,158.179c0-.689-.077-1.379-.077-1.992v-27.27c0-2.758.46-3.217,3.141-3.217H646.68c2.451.077,2.834.46,2.834,2.987v31.484c0,2.068-.46,2.528-2.451,2.528a77.124,77.124,0,0,0-8.426.077c-4.826.46-9.345-1.072-13.942-1.992-4.366-.843-8.809-1.532-13.175-2.3C611.289,158.409,611.136,158.333,610.677,158.179Z" transform="translate(105.697 1154.895)" />
    <path id="Path_180" data-name="Path 180" d="M551.4,143.4V128.381c0-2.221.46-2.681,2.758-2.681H587.48c2.375,0,2.758.383,2.758,2.758v27.194c0,.613-.077,1.226-.077,1.992-2.987-.306-5.745-.613-8.35-2.145a89.874,89.874,0,0,0-19.074-9.345c-3.141-1-6.435-1.609-9.575-2.375A8.13,8.13,0,0,1,551.4,143.4Z" transform="translate(119.549 1154.895)" />
    <path id="Path_181" data-name="Path 181" d="M607.4,83.093c.536-2.681,1-5.286,1.685-7.737,1.685-5.592,3.983-10.954,7.813-15.474A15.674,15.674,0,0,1,633.292,54.9c7.66,2.451,13.405,14.248,5.439,22.674a26.173,26.173,0,0,1-8.043,5.439,3.109,3.109,0,0,1-1.456.306H608.779A8.069,8.069,0,0,1,607.4,83.093Zm7.277-1.915c.46-.077.766-.077,1.072-.153,4.213-1.379,8.426-2.6,12.486-4.137a17.785,17.785,0,0,0,6.128-4.29c3.064-3.141,1.379-10.188-3.37-11.337a8.237,8.237,0,0,0-8.886,3.064C617.971,69.075,616.056,74.9,614.677,81.178Z" transform="translate(106.446 1171.61)"/>
    <path id="Path_182" data-name="Path 182" d="M594.555,83.162a16.474,16.474,0,0,1-1.762.153c-6.511,0-13.022.077-19.457,0A7.554,7.554,0,0,1,570.5,82.7a23.038,23.038,0,0,1-7.584-5.439,12.793,12.793,0,0,1-2.758-13.329c1.609-5.056,4.979-8.426,10.265-9.422,6.2-1.149,11.184,1.226,15.091,5.975a42.374,42.374,0,0,1,7.967,17.006C593.865,79.255,594.172,81.17,594.555,83.162ZM587.2,81.247c-.613-5.362-3.754-12.869-6.894-16.623a9.871,9.871,0,0,0-5.286-3.447,7.039,7.039,0,0,0-7.737,2.834c-1.839,3.064-1.609,6.664.766,8.962a19.411,19.411,0,0,0,4.6,3.294C577.166,78.719,582.069,80.021,587.2,81.247Z" transform="translate(117.683 1171.618)"/>
  </g>
</svg>
