<svg xmlns="http://www.w3.org/2000/svg" width="146.227" height="119.11" viewBox="0 0 146.227 119.11">
  <g id="Group_525" data-name="Group 525" transform="translate(-452.9 -345.856)">
    <path id="Path_183" data-name="Path 183" d="M592.9,499.016h-38.11c-.5-7.611-.783-15.277-1.287-23h-9.961c-.392,7.667-.839,15.277-1.231,23H504.2Q517.127,461.074,530,423.3h16.341c-.112,2.462-.224,4.869-.392,7.331H551.1c-.112-2.406-.224-4.813-.336-7.331H567.1Q579.944,461.158,592.9,499.016Zm-40.572-45.44h-7.611c-.224,4.309-.448,8.506-.672,12.759H553C552.774,462.025,552.551,457.828,552.327,453.575Zm-6.6-17.8c-.168,3.3-.336,6.492-.5,9.681h6.715c-.168-3.246-.336-6.436-.5-9.681Z" transform="translate(-22.592 -34.105)"/>
    <path id="Path_184" data-name="Path 184" d="M579.848,356.9c-.112-.336-.168-.672-.28-.951-.616-1.511.112-2.518,1.791-2.574,1.455,0,2.238.783,1.791,1.9a2,2,0,0,1-1.567,1.175,8.617,8.617,0,0,1-.951.28v.28a2.345,2.345,0,0,0,.839.224,5.4,5.4,0,0,1,3.693,2.071c1.007,1.231,2.182,2.462,2.462,4.085a59.853,59.853,0,0,0,1.455,6.268,22.732,22.732,0,0,1,.336,9.122c-.168,1.119-.28,2.294-.5,3.414-.28,1.735-.9,2.182-2.63,2.182h-2.854c-2.071,0-2.686-.5-3.246-2.462-.168-.672-.336-1.4-.5-2.071-.112,0-.168-.056-.224,0a10.809,10.809,0,0,1-4.981.9c-9.066-.056-18.131,0-27.2,0-2.127,0-4.365.336-6.324-1.007-.28,1.007-.448,1.9-.727,2.742a2.314,2.314,0,0,1-2.574,1.959c-1.287.056-2.574.056-3.917,0a1.774,1.774,0,0,1-1.959-1.623c-.28-1.343-.448-2.686-.672-4.029a26.833,26.833,0,0,1,.448-9.681,3.207,3.207,0,0,1,.224-.783,7.39,7.39,0,0,0,.839-3.47,6.753,6.753,0,0,1,1.343-3.693c.392-.56.839-1.119,1.287-1.679a4.993,4.993,0,0,1,3.805-2.182,2.463,2.463,0,0,0,.56-.112c.056,0,.168-.112.336-.28a5.832,5.832,0,0,0-.672-.28,5.676,5.676,0,0,1-1.343-.56,1.371,1.371,0,0,1-.616-1.679c.168-.672.56-.9,1.4-.951h.448c1.679.056,2.35,1.063,1.735,2.574a5.239,5.239,0,0,0-.224.9c.672.168.727-.224.9-.56.783-1.791,1.567-3.582,2.406-5.316.392-.839.9-1.623,1.343-2.462a2.766,2.766,0,0,1,1.9-1.455c1.679-.336,3.3-.728,4.981-.9a84.107,84.107,0,0,1,13.543-.168c2.294.168,4.533.56,6.771.9a3.483,3.483,0,0,1,2.8,2.071c1.119,2.406,2.294,4.813,3.414,7.219C579.008,356.513,579.008,357.017,579.848,356.9Zm-4.309,1.735a23.243,23.243,0,0,0-2.406-5.652,2.411,2.411,0,0,0-1.791-1.175,57.661,57.661,0,0,0-6.156-.727q-4.869-.168-9.737,0c-2.015.056-3.973.448-5.988.672a2.827,2.827,0,0,0-2.238,1.623c-.727,1.567-1.4,3.19-2.071,4.757-.056.112,0,.28-.056.5ZM540.4,367.65a3.414,3.414,0,1,0-.056,6.827,3.392,3.392,0,0,0,3.414-3.414A3.345,3.345,0,0,0,540.4,367.65Zm36.431,3.414a3.392,3.392,0,0,0,3.414,3.414,3.476,3.476,0,0,0,3.414-3.47,3.392,3.392,0,0,0-3.414-3.414A3.439,3.439,0,0,0,576.826,371.063Z" transform="translate(-34.332 0)"/>
    <path id="Path_185" data-name="Path 185" d="M468.233,499.072H452.9a5.076,5.076,0,0,1,.392-.784l23.5-41.8c5.988-10.633,11.92-21.265,17.908-31.842.056-.112.168-.28.224-.392a1.433,1.433,0,0,1,1.567-.951c1.455.056,2.91,0,4.365,0h1.063C490.618,448.65,479.426,473.833,468.233,499.072Z" transform="translate(0 -34.105)" />
    <path id="Path_186" data-name="Path 186" d="M675.534,499.116H660.089Q643.3,461.342,626.4,423.4h6.547Q654.185,461.09,675.534,499.116Z" transform="translate(-76.407 -34.149)" />
  </g>
</svg>
