<svg xmlns="http://www.w3.org/2000/svg" width="158.737" height="149.202" viewBox="0 0 158.737 149.202">
  <g id="Group_526" data-name="Group 526" transform="translate(-467.2 -639.901)">
    <path id="Path_187" data-name="Path 187" d="M567.863,677.7c.207.344.344.62.482.827,4.754,10.679,10.679,20.669,16.742,30.659,3.789,6.132,7.647,12.195,10.472,18.878,4.961,11.575,3.858,22.6-3.651,32.657-5.1,6.89-12.4,10.266-20.875,11.092a30.75,30.75,0,0,1-22.391-6.132c-6.545-4.892-9.852-11.643-11.23-19.635-1.309-7.647.551-14.606,4.134-21.22,3.72-6.821,7.716-13.5,11.712-20.118a253.086,253.086,0,0,0,14.124-26.249C567.518,678.251,567.656,678.044,567.863,677.7Zm9.508,35.619a9.818,9.818,0,0,1,.344,1.1c.758,2.274,1.654,4.478,2.274,6.821,2.342,7.992,3.72,16.122,2.411,24.458-1.033,6.27-3.72,11.643-8.888,15.57-.827.62-1.654,1.171-2.756,1.929.62-.138,1.033-.138,1.378-.207,5.856-1.033,10.61-3.789,13.848-8.819,4.478-7.1,5.029-14.606,1.86-22.391-2.618-6.545-6.683-12.263-10.266-18.326C577.646,713.457,577.508,713.457,577.37,713.319Z" transform="translate(-21.708 -11.757)"/>
    <path id="Path_188" data-name="Path 188" d="M476.57,761.119c-3.031.758-6.063,1.447-9.37,2.2,2.687-11.643,5.3-23.011,8.061-34.724,7.716,9.163,15.226,18.12,22.942,27.283-3.238.758-6.338,1.516-9.37,2.274,4.754,21.013,22.8,40.511,47.745,45.058a59.436,59.436,0,0,0,42.784-7.923c13.159-8.061,21.909-19.7,26.525-34.517,2,.551,3.858,1.1,5.718,1.654,1.654.482,3.376,1.033,5.029,1.516.827.207,1.033.482.758,1.378a73.348,73.348,0,0,1-26.181,36.859,73.181,73.181,0,0,1-28.8,12.952,71.658,71.658,0,0,1-17.155,1.516,74.742,74.742,0,0,1-21.978-4.134,72.012,72.012,0,0,1-28.454-18.4,67.544,67.544,0,0,1-13.917-20.875c-1.516-3.651-2.687-7.51-4-11.3A4.215,4.215,0,0,1,476.57,761.119Z" transform="translate(0 -27.589)" />
    <path id="Path_189" data-name="Path 189" d="M491.25,697.429c-3.927-1.033-7.785-2.067-11.85-3.169a71.187,71.187,0,0,1,9.921-21.978c10.266-14.95,24.114-25.078,41.682-29.763,19.291-5.1,37.824-2.756,55.117,7.1,17.362,9.921,28.592,24.734,34.31,43.956,3.031-.827,6.063-1.585,9.3-2.411-2.411,11.712-4.685,23.08-7.1,34.793C614.643,717,606.927,708.245,599,699.358c3.238-.9,6.27-1.722,9.3-2.549-4.892-19.429-22.047-38.651-46.78-43.4a59.291,59.291,0,0,0-43.749,8.13C504.34,670.008,495.659,682.065,491.25,697.429Z" transform="translate(-3.795 0)"/>
  </g>
</svg>
