<svg xmlns="http://www.w3.org/2000/svg" width="144.834" height="75.543" viewBox="0 0 144.834 75.543">
  <path id="Path_190" data-name="Path 190" d="M489.425,997.7h40.254v13.7a60.512,60.512,0,0,0,3.23,17.884,193.363,193.363,0,0,0,16.568,37.622,1.569,1.569,0,0,0,1.615.957c.6-.06,1.256,0,1.914,0-2.751-5.144-5.443-10.288-8.254-15.551h7.835V1042.5H542.479v4.007a.36.36,0,0,0-.239.06c-3.948-9.929-8.075-19.8-9.63-30.564H579.2v51.858h13.1a2.692,2.692,0,0,1,2.991,2.931,2.59,2.59,0,0,1-2.452,2.452H453.657c-2.273,0-3.349-1.615-3.17-2.991a2.666,2.666,0,0,1,2.213-2.333,7.223,7.223,0,0,1,1.136-.06h14.594a1.147,1.147,0,0,0,1.077-.538A187.849,187.849,0,0,0,487.69,1024.5a52.165,52.165,0,0,0,1.854-13.936V998.717A2.641,2.641,0,0,1,489.425,997.7Zm71.536,54.549H571.01v-9.75H560.961Zm0-18.422h10.108v-9.689H560.961Zm-8.434-9.689H542.479v9.689h10.049Z" transform="translate(-450.468 -997.7)"/>
</svg>
