<svg xmlns="http://www.w3.org/2000/svg" width="126.955" height="127.396" viewBox="0 0 126.955 127.396">
  <g id="Group_528" data-name="Group 528" transform="translate(-816.684 -62.8)">
    <path id="Path_192" data-name="Path 192" d="M895.655,122.164c-.3,2.557-.535,4.936-.773,7.315-.773,6.9-1.546,13.739-2.32,20.578-.714,6.483-1.427,12.965-2.2,19.448a2.538,2.538,0,0,1-.833,1.427c-7.018,5.829-9.992,13.441-9.694,22.422a26.821,26.821,0,0,0,5.055,14.69c1.249,1.784,1.011,3.509-.833,4.639a6.62,6.62,0,0,1-3.331,1.011c-16.236.059-32.414.059-48.65.059-3.39,0-5.174-1.546-5.531-4.936-1.071-9.516-2.082-18.972-3.152-28.488-.833-7.375-1.665-14.809-2.5-22.184-.833-7.553-1.665-15.047-2.5-22.6-.416-3.568-.833-7.2-1.189-10.765a9.6,9.6,0,0,1-.119-1.844,1.4,1.4,0,0,1,.773-.773c.178-.119.535,0,.773,0h75.89A3.4,3.4,0,0,1,895.655,122.164Zm-52.516,38.421a6.159,6.159,0,0,0,.535-1.427c.059-3.331.119-6.661,0-10.051a2.533,2.533,0,0,0-2.855-2.617q-2.5.089-2.5,3.033v37.291a2.633,2.633,0,0,0,1.784,2.26,2.157,2.157,0,0,0,2.676-.595,4.622,4.622,0,0,0,.892-2.617c.059-6.542.059-13.144,0-19.686a7.626,7.626,0,0,0-.416-1.784C843.853,163.915,843.912,160.941,843.139,160.585Zm15.761,7.2h0c.059-2.8.059-5.65.059-8.445,0-3.39,0-6.78-.059-10.17a2.53,2.53,0,0,0-3.271-2.617c-1.308.238-2.022,1.249-2.022,2.974v37.35a2.6,2.6,0,0,0,2.319,2.319,2.444,2.444,0,0,0,2.676-1.546,5.4,5.4,0,0,0,.238-1.963C858.9,179.795,858.9,173.788,858.9,167.781Zm15.285,0h0V149.165a2.543,2.543,0,0,0-3.509-2.557,2.69,2.69,0,0,0-1.784,2.914v19.389c0,5.71-.059,11.479.059,17.188a3.548,3.548,0,0,0,1.011,2.5,3.139,3.139,0,0,0,2.557.357,2.512,2.512,0,0,0,1.665-2.676Z" transform="translate(-0.158 -24.036)"/>
    <path id="Path_193" data-name="Path 193" d="M989.867,222.137a82.166,82.166,0,0,1-.059,8.564c-.476,4.58-4.044,7.553-8.683,7.613-5.65.059-11.3,0-16.891,0q-7.851,0-15.7.178a10.837,10.837,0,0,1-9.278-4.342c-2.438-3.152-5.234-6.007-6.6-9.813-2.676-7.553-1.9-14.69,2.676-21.292,1.427-2.022,3.509-3.568,5.353-5.293,4.461-3.985,8.921-7.97,13.441-11.954,1.309-1.189,2.676-2.379,4.044-3.45a1.986,1.986,0,0,1,1.308-.357q6.156,1.071,12.311,2.32a2.63,2.63,0,0,1,1.368.892c4.223,5.531,8.386,11,12.49,16.593a22.923,22.923,0,0,1,4.342,13.62c.059,2.2,0,4.4,0,6.6C989.986,222.137,989.927,222.137,989.867,222.137Z" transform="translate(-46.374 -48.298)" />
    <path id="Path_194" data-name="Path 194" d="M856.066,92.656h-37.41c-1.963,0-1.963,0-1.963-2.022a31.538,31.538,0,0,1,.119-4.1,7.584,7.584,0,0,1,7.732-6.721c3.925,0,7.851-.059,11.776,0,1.19,0,1.546-.357,1.487-1.546-.06-3.985-.06-7.91,0-11.895,0-2.5,1.07-3.568,3.568-3.568h29.618c2.379,0,3.45,1.13,3.45,3.509,0,3.985.059,8.029,0,12.014,0,1.13.357,1.427,1.427,1.427q5.888-.089,11.776,0a7.767,7.767,0,0,1,7.91,7.613c.059,1.13,0,2.32,0,3.45,0,1.784-.059,1.784-1.784,1.784H871.826C866.593,92.656,861.3,92.656,856.066,92.656Zm12.192-23.671a4.016,4.016,0,0,0-.833-.119H845.063c-.952,0-1.19.416-1.19,1.308,0,2.676.059,5.353,0,8.089-.059,1.308.416,1.665,1.665,1.665,7.078-.059,14.155,0,21.292,0,.476,0,.952-.059,1.427-.059Z"/>
    <path id="Path_195" data-name="Path 195" d="M979.706,125.208c0-.595-.059-1.249-.119-1.844a2.46,2.46,0,0,1,1.546-2.8c1.308-.535,2.2.119,2.974,1.071a39.728,39.728,0,0,0,13.8,11.3,51.594,51.594,0,0,0,7.137,2.676c2.676.892,3.212,2.617,1.249,4.7-4.1,4.282-8.148,8.5-12.252,12.847a2.268,2.268,0,0,1-2.438.773c-3.093-.654-6.245-1.189-9.337-1.784-.952-.178-1.487-.535-1.487-1.606-.119-3.985-.357-7.91-.535-11.895C980.063,134.189,979.884,129.728,979.706,125.208Z" transform="translate(-66.009 -23.333)" />
  </g>
</svg>
